<svg width="16" height="16" viewBox="0 0 16 16" fill="none" xmlns="http://www.w3.org/2000/svg">
<path d="M5.78922 15.9998C3.40794 15.9861 1.43819 11.1251 1.43819 8.64954C1.43819 4.60566 4.47178 3.72035 5.6409 3.72035C6.16778 3.72035 6.73037 3.92725 7.22659 4.11035C7.57359 4.23807 7.93247 4.36991 8.13206 4.36991C8.25153 4.36991 8.53306 4.25775 8.78162 4.15935C9.31172 3.94832 9.97134 3.68604 10.7395 3.68604C10.7408 3.68604 10.7427 3.68604 10.744 3.68604C11.3176 3.68604 13.0567 3.81191 14.1022 5.38204L14.3471 5.75007L13.9946 6.01604C13.4911 6.39597 12.5723 7.08904 12.5723 8.46188C12.5723 10.0878 13.6128 10.7132 14.1127 11.0139C14.3334 11.1467 14.5618 11.2835 14.5618 11.5829C14.5618 11.7784 13.0017 15.9756 10.7362 15.9756C10.1819 15.9756 9.79006 15.809 9.44443 15.662C9.09472 15.5133 8.79303 15.3851 8.29453 15.3851C8.04184 15.3851 7.72231 15.5046 7.38403 15.6314C6.92175 15.8039 6.3985 15.9998 5.80478 15.9998H5.78922Z" fill="#2B2D42"/>
<path d="M10.9795 0C11.0385 2.12737 9.51706 3.60325 7.99744 3.51069C7.74703 1.81297 9.51687 0 10.9795 0Z" fill="#2B2D42"/>
</svg>
