<svg width="16" height="16" viewBox="0 0 16 16" fill="none" xmlns="http://www.w3.org/2000/svg">
<g clip-path="url(#clip0)">
<path d="M15.3959 6.6092L8.86962 6.60889C8.58143 6.60889 8.34784 6.84245 8.34784 7.13064V9.21548C8.34784 9.50361 8.58143 9.73723 8.86959 9.73723H12.5448C12.1423 10.7816 11.3912 11.6563 10.4329 12.212L12 14.9248C14.5138 13.471 16 10.9201 16 8.06451C16 7.65792 15.97 7.36726 15.9101 7.03998C15.8645 6.79132 15.6487 6.6092 15.3959 6.6092Z" fill="#167EE6"/>
<path d="M8 12.8695C6.20144 12.8695 4.63132 11.8868 3.78804 10.4326L1.07535 11.9962C2.45582 14.3887 5.04188 15.9999 8 15.9999C9.45116 15.9999 10.8204 15.6092 12 14.9283V14.9246L10.4329 12.2117C9.7161 12.6275 8.8866 12.8695 8 12.8695Z" fill="#12B347"/>
<path d="M12 14.9284V14.9247L10.4329 12.2119C9.71609 12.6276 8.88666 12.8696 8 12.8696V16.0001C9.45116 16.0001 10.8205 15.6094 12 14.9284Z" fill="#0F993E"/>
<path d="M3.13044 7.9997C3.13044 7.11317 3.37238 6.28376 3.78803 5.56698L1.07534 4.00342C0.390687 5.17926 0 6.54482 0 7.9997C0 9.45457 0.390687 10.8201 1.07534 11.996L3.78803 10.4324C3.37238 9.71564 3.13044 8.88623 3.13044 7.9997Z" fill="#FFD500"/>
<path d="M8 3.13044C9.17284 3.13044 10.2502 3.54719 11.0916 4.24041C11.2992 4.41141 11.6009 4.39906 11.7911 4.20891L13.2683 2.73172C13.484 2.51597 13.4687 2.16281 13.2382 1.96288C11.8283 0.739781 9.99397 0 8 0C5.04188 0 2.45582 1.61116 1.07535 4.00372L3.78803 5.56728C4.63131 4.11312 6.20144 3.13044 8 3.13044Z" fill="#FF4B26"/>
<path d="M11.0916 4.24041C11.2992 4.41141 11.601 4.39906 11.7911 4.20891L13.2683 2.73172C13.484 2.51597 13.4686 2.16281 13.2382 1.96288C11.8283 0.73975 9.99397 0 8 0V3.13044C9.17281 3.13044 10.2502 3.54719 11.0916 4.24041Z" fill="#D93F21"/>
</g>
<defs>
<clipPath id="clip0">
<rect width="16" height="16" fill="white"/>
</clipPath>
</defs>
</svg>
